<mxfile host="app.diagrams.net" modified="2020-12-29T06:25:21.793Z" agent="5.0 (Macintosh; Intel Mac OS X 10_15_7) AppleWebKit/537.36 (KHTML, like Gecko) Chrome/87.0.4280.88 Safari/537.36" etag="pcjrOFE3sZORtzBurCrR" version="14.1.2" type="github">
  <diagram id="eL7ak1rJTYfULiPGaDFt" name="Page-1">
    <mxGraphModel dx="988" dy="534" grid="1" gridSize="10" guides="1" tooltips="1" connect="1" arrows="1" fold="1" page="1" pageScale="1" pageWidth="3300" pageHeight="4681" math="0" shadow="0">
      <root>
        <mxCell id="0" />
        <mxCell id="1" parent="0" />
        <mxCell id="ZDJ-HBRPtkBt4qHDMkSX-4" value="发布文章" style="ellipse;whiteSpace=wrap;html=1;" parent="1" vertex="1">
          <mxGeometry x="560" y="20" width="140" height="70" as="geometry" />
        </mxCell>
        <mxCell id="ZDJ-HBRPtkBt4qHDMkSX-5" value="更新文章" style="ellipse;whiteSpace=wrap;html=1;" parent="1" vertex="1">
          <mxGeometry x="555" y="190" width="140" height="70" as="geometry" />
        </mxCell>
        <mxCell id="ZDJ-HBRPtkBt4qHDMkSX-9" value="保存草稿" style="ellipse;whiteSpace=wrap;html=1;" parent="1" vertex="1">
          <mxGeometry x="555" y="100" width="140" height="70" as="geometry" />
        </mxCell>
        <mxCell id="ZDJ-HBRPtkBt4qHDMkSX-11" value="" style="endArrow=open;endFill=1;endSize=12;html=1;entryX=0;entryY=0.5;entryDx=0;entryDy=0;dashed=1;exitX=1;exitY=0.5;exitDx=0;exitDy=0;" parent="1" source="p_YJIw6m68GWcsmd0kjf-3" target="ZDJ-HBRPtkBt4qHDMkSX-9" edge="1">
          <mxGeometry width="160" relative="1" as="geometry">
            <mxPoint x="70" y="150" as="sourcePoint" />
            <mxPoint x="280" y="180" as="targetPoint" />
          </mxGeometry>
        </mxCell>
        <mxCell id="p_YJIw6m68GWcsmd0kjf-6" value="&amp;lt;&amp;lt;include&amp;gt;&amp;gt;" style="edgeLabel;html=1;align=center;verticalAlign=middle;resizable=0;points=[];" parent="ZDJ-HBRPtkBt4qHDMkSX-11" vertex="1" connectable="0">
          <mxGeometry x="-0.0515" y="-2" relative="1" as="geometry">
            <mxPoint as="offset" />
          </mxGeometry>
        </mxCell>
        <mxCell id="ZDJ-HBRPtkBt4qHDMkSX-13" value="预览文章" style="ellipse;whiteSpace=wrap;html=1;" parent="1" vertex="1">
          <mxGeometry x="560" y="270" width="140" height="70" as="geometry" />
        </mxCell>
        <mxCell id="ZDJ-HBRPtkBt4qHDMkSX-16" value="查看专栏作者列表" style="ellipse;whiteSpace=wrap;html=1;" parent="1" vertex="1">
          <mxGeometry x="555" y="370" width="130" height="60" as="geometry" />
        </mxCell>
        <mxCell id="ZDJ-HBRPtkBt4qHDMkSX-17" value="查看文章列表" style="ellipse;whiteSpace=wrap;html=1;" parent="1" vertex="1">
          <mxGeometry x="555" y="450" width="140" height="70" as="geometry" />
        </mxCell>
        <mxCell id="ZDJ-HBRPtkBt4qHDMkSX-18" value="查看点赞、踩" style="ellipse;whiteSpace=wrap;html=1;" parent="1" vertex="1">
          <mxGeometry x="555" y="630" width="140" height="70" as="geometry" />
        </mxCell>
        <mxCell id="ZDJ-HBRPtkBt4qHDMkSX-19" value="评论文章" style="ellipse;whiteSpace=wrap;html=1;" parent="1" vertex="1">
          <mxGeometry x="555" y="730" width="140" height="70" as="geometry" />
        </mxCell>
        <mxCell id="ZDJ-HBRPtkBt4qHDMkSX-20" value="收藏文章" style="ellipse;whiteSpace=wrap;html=1;" parent="1" vertex="1">
          <mxGeometry x="550" y="920" width="140" height="70" as="geometry" />
        </mxCell>
        <mxCell id="ZDJ-HBRPtkBt4qHDMkSX-21" value="删除评论" style="ellipse;whiteSpace=wrap;html=1;" parent="1" vertex="1">
          <mxGeometry x="545" y="830" width="140" height="70" as="geometry" />
        </mxCell>
        <mxCell id="p_YJIw6m68GWcsmd0kjf-3" value="编辑文章" style="ellipse;whiteSpace=wrap;html=1;" parent="1" vertex="1">
          <mxGeometry x="210" y="130" width="140" height="70" as="geometry" />
        </mxCell>
        <mxCell id="p_YJIw6m68GWcsmd0kjf-13" value="评论管理" style="ellipse;whiteSpace=wrap;html=1;" parent="1" vertex="1">
          <mxGeometry x="40" y="760" width="140" height="70" as="geometry" />
        </mxCell>
        <mxCell id="p_YJIw6m68GWcsmd0kjf-16" value="" style="endArrow=open;endFill=1;endSize=12;html=1;entryX=0;entryY=0.5;entryDx=0;entryDy=0;dashed=1;exitX=1;exitY=0.5;exitDx=0;exitDy=0;" parent="1" source="p_YJIw6m68GWcsmd0kjf-3" target="ZDJ-HBRPtkBt4qHDMkSX-4" edge="1">
          <mxGeometry width="160" relative="1" as="geometry">
            <mxPoint x="550" y="175" as="sourcePoint" />
            <mxPoint x="730" y="120" as="targetPoint" />
          </mxGeometry>
        </mxCell>
        <mxCell id="p_YJIw6m68GWcsmd0kjf-17" value="&amp;lt;&amp;lt;include&amp;gt;&amp;gt;" style="edgeLabel;html=1;align=center;verticalAlign=middle;resizable=0;points=[];" parent="p_YJIw6m68GWcsmd0kjf-16" vertex="1" connectable="0">
          <mxGeometry x="-0.0515" y="-2" relative="1" as="geometry">
            <mxPoint as="offset" />
          </mxGeometry>
        </mxCell>
        <mxCell id="p_YJIw6m68GWcsmd0kjf-18" value="" style="endArrow=open;endFill=1;endSize=12;html=1;entryX=0;entryY=0.371;entryDx=0;entryDy=0;dashed=1;exitX=1;exitY=0.5;exitDx=0;exitDy=0;entryPerimeter=0;" parent="1" source="p_YJIw6m68GWcsmd0kjf-3" target="ZDJ-HBRPtkBt4qHDMkSX-5" edge="1">
          <mxGeometry width="160" relative="1" as="geometry">
            <mxPoint x="420" y="295" as="sourcePoint" />
            <mxPoint x="720" y="295" as="targetPoint" />
          </mxGeometry>
        </mxCell>
        <mxCell id="p_YJIw6m68GWcsmd0kjf-19" value="&amp;lt;&amp;lt;include&amp;gt;&amp;gt;" style="edgeLabel;html=1;align=center;verticalAlign=middle;resizable=0;points=[];" parent="p_YJIw6m68GWcsmd0kjf-18" vertex="1" connectable="0">
          <mxGeometry x="-0.0515" y="-2" relative="1" as="geometry">
            <mxPoint as="offset" />
          </mxGeometry>
        </mxCell>
        <mxCell id="p_YJIw6m68GWcsmd0kjf-20" value="" style="endArrow=open;endFill=1;endSize=12;html=1;entryX=0;entryY=0.343;entryDx=0;entryDy=0;dashed=1;exitX=1;exitY=0.5;exitDx=0;exitDy=0;entryPerimeter=0;" parent="1" source="p_YJIw6m68GWcsmd0kjf-3" target="ZDJ-HBRPtkBt4qHDMkSX-13" edge="1">
          <mxGeometry width="160" relative="1" as="geometry">
            <mxPoint x="420" y="295" as="sourcePoint" />
            <mxPoint x="630" y="355.97" as="targetPoint" />
          </mxGeometry>
        </mxCell>
        <mxCell id="p_YJIw6m68GWcsmd0kjf-21" value="&amp;lt;&amp;lt;include&amp;gt;&amp;gt;" style="edgeLabel;html=1;align=center;verticalAlign=middle;resizable=0;points=[];" parent="p_YJIw6m68GWcsmd0kjf-20" vertex="1" connectable="0">
          <mxGeometry x="-0.0515" y="-2" relative="1" as="geometry">
            <mxPoint as="offset" />
          </mxGeometry>
        </mxCell>
        <mxCell id="p_YJIw6m68GWcsmd0kjf-22" value="" style="endArrow=open;endFill=1;endSize=12;html=1;entryX=0;entryY=0.5;entryDx=0;entryDy=0;dashed=1;exitX=1.012;exitY=0.626;exitDx=0;exitDy=0;exitPerimeter=0;" parent="1" source="UK8CRLs89HbCflNbkE4f-5" target="ZDJ-HBRPtkBt4qHDMkSX-16" edge="1">
          <mxGeometry width="160" relative="1" as="geometry">
            <mxPoint x="420" y="295" as="sourcePoint" />
            <mxPoint x="610" y="444.01" as="targetPoint" />
          </mxGeometry>
        </mxCell>
        <mxCell id="p_YJIw6m68GWcsmd0kjf-23" value="&amp;lt;&amp;lt;include&amp;gt;&amp;gt;" style="edgeLabel;html=1;align=center;verticalAlign=middle;resizable=0;points=[];" parent="p_YJIw6m68GWcsmd0kjf-22" vertex="1" connectable="0">
          <mxGeometry x="-0.0515" y="-2" relative="1" as="geometry">
            <mxPoint as="offset" />
          </mxGeometry>
        </mxCell>
        <mxCell id="p_YJIw6m68GWcsmd0kjf-24" value="" style="endArrow=open;endFill=1;endSize=12;html=1;entryX=0;entryY=0.5;entryDx=0;entryDy=0;dashed=1;exitX=1;exitY=0.5;exitDx=0;exitDy=0;" parent="1" source="p_YJIw6m68GWcsmd0kjf-13" target="ZDJ-HBRPtkBt4qHDMkSX-18" edge="1">
          <mxGeometry width="160" relative="1" as="geometry">
            <mxPoint x="410" y="635" as="sourcePoint" />
            <mxPoint x="530" y="540" as="targetPoint" />
          </mxGeometry>
        </mxCell>
        <mxCell id="p_YJIw6m68GWcsmd0kjf-25" value="&amp;lt;&amp;lt;include&amp;gt;&amp;gt;" style="edgeLabel;html=1;align=center;verticalAlign=middle;resizable=0;points=[];" parent="p_YJIw6m68GWcsmd0kjf-24" vertex="1" connectable="0">
          <mxGeometry x="-0.0515" y="-2" relative="1" as="geometry">
            <mxPoint as="offset" />
          </mxGeometry>
        </mxCell>
        <mxCell id="p_YJIw6m68GWcsmd0kjf-26" value="" style="endArrow=open;endFill=1;endSize=12;html=1;entryX=-0.029;entryY=0.4;entryDx=0;entryDy=0;dashed=1;exitX=1.002;exitY=0.671;exitDx=0;exitDy=0;entryPerimeter=0;exitPerimeter=0;" parent="1" source="UK8CRLs89HbCflNbkE4f-5" target="ZDJ-HBRPtkBt4qHDMkSX-17" edge="1">
          <mxGeometry width="160" relative="1" as="geometry">
            <mxPoint x="400" y="620" as="sourcePoint" />
            <mxPoint x="540" y="550" as="targetPoint" />
          </mxGeometry>
        </mxCell>
        <mxCell id="p_YJIw6m68GWcsmd0kjf-27" value="&amp;lt;&amp;lt;include&amp;gt;&amp;gt;" style="edgeLabel;html=1;align=center;verticalAlign=middle;resizable=0;points=[];" parent="p_YJIw6m68GWcsmd0kjf-26" vertex="1" connectable="0">
          <mxGeometry x="-0.0515" y="-2" relative="1" as="geometry">
            <mxPoint as="offset" />
          </mxGeometry>
        </mxCell>
        <mxCell id="p_YJIw6m68GWcsmd0kjf-28" value="" style="endArrow=open;endFill=1;endSize=12;html=1;entryX=0;entryY=0;entryDx=0;entryDy=0;dashed=1;exitX=1;exitY=0.5;exitDx=0;exitDy=0;" parent="1" source="p_YJIw6m68GWcsmd0kjf-13" target="ZDJ-HBRPtkBt4qHDMkSX-19" edge="1">
          <mxGeometry width="160" relative="1" as="geometry">
            <mxPoint x="430" y="655" as="sourcePoint" />
            <mxPoint x="550" y="560" as="targetPoint" />
          </mxGeometry>
        </mxCell>
        <mxCell id="p_YJIw6m68GWcsmd0kjf-29" value="&amp;lt;&amp;lt;include&amp;gt;&amp;gt;" style="edgeLabel;html=1;align=center;verticalAlign=middle;resizable=0;points=[];" parent="p_YJIw6m68GWcsmd0kjf-28" vertex="1" connectable="0">
          <mxGeometry x="-0.0515" y="-2" relative="1" as="geometry">
            <mxPoint as="offset" />
          </mxGeometry>
        </mxCell>
        <mxCell id="p_YJIw6m68GWcsmd0kjf-30" value="" style="endArrow=open;endFill=1;endSize=12;html=1;entryX=0.5;entryY=0;entryDx=0;entryDy=0;dashed=1;exitX=1.011;exitY=0.64;exitDx=0;exitDy=0;exitPerimeter=0;" parent="1" source="p_YJIw6m68GWcsmd0kjf-13" target="ZDJ-HBRPtkBt4qHDMkSX-21" edge="1">
          <mxGeometry width="160" relative="1" as="geometry">
            <mxPoint x="380" y="620" as="sourcePoint" />
            <mxPoint x="500.5025253169417" y="820.2512626584708" as="targetPoint" />
          </mxGeometry>
        </mxCell>
        <mxCell id="p_YJIw6m68GWcsmd0kjf-31" value="&amp;lt;&amp;lt;include&amp;gt;&amp;gt;" style="edgeLabel;html=1;align=center;verticalAlign=middle;resizable=0;points=[];" parent="p_YJIw6m68GWcsmd0kjf-30" vertex="1" connectable="0">
          <mxGeometry x="-0.0515" y="-2" relative="1" as="geometry">
            <mxPoint as="offset" />
          </mxGeometry>
        </mxCell>
        <mxCell id="p_YJIw6m68GWcsmd0kjf-32" value="" style="endArrow=open;endFill=1;endSize=12;html=1;dashed=1;exitX=0.994;exitY=0.64;exitDx=0;exitDy=0;exitPerimeter=0;" parent="1" source="p_YJIw6m68GWcsmd0kjf-13" target="ZDJ-HBRPtkBt4qHDMkSX-20" edge="1">
          <mxGeometry width="160" relative="1" as="geometry">
            <mxPoint x="380" y="680" as="sourcePoint" />
            <mxPoint x="440" y="880" as="targetPoint" />
          </mxGeometry>
        </mxCell>
        <mxCell id="p_YJIw6m68GWcsmd0kjf-33" value="&amp;lt;&amp;lt;include&amp;gt;&amp;gt;" style="edgeLabel;html=1;align=center;verticalAlign=middle;resizable=0;points=[];" parent="p_YJIw6m68GWcsmd0kjf-32" vertex="1" connectable="0">
          <mxGeometry x="-0.0515" y="-2" relative="1" as="geometry">
            <mxPoint as="offset" />
          </mxGeometry>
        </mxCell>
        <mxCell id="p_YJIw6m68GWcsmd0kjf-34" value="用户管理" style="ellipse;whiteSpace=wrap;html=1;" parent="1" vertex="1">
          <mxGeometry x="40" y="1160" width="140" height="70" as="geometry" />
        </mxCell>
        <mxCell id="UK8CRLs89HbCflNbkE4f-2" value="文章管理" style="ellipse;whiteSpace=wrap;html=1;" parent="1" vertex="1">
          <mxGeometry x="40" y="220" width="120" height="80" as="geometry" />
        </mxCell>
        <mxCell id="UK8CRLs89HbCflNbkE4f-4" value="" style="endArrow=classic;html=1;exitX=1;exitY=0.5;exitDx=0;exitDy=0;entryX=0;entryY=0.5;entryDx=0;entryDy=0;" parent="1" source="UK8CRLs89HbCflNbkE4f-2" target="p_YJIw6m68GWcsmd0kjf-3" edge="1">
          <mxGeometry width="50" height="50" relative="1" as="geometry">
            <mxPoint x="420" y="500" as="sourcePoint" />
            <mxPoint x="210" y="280" as="targetPoint" />
          </mxGeometry>
        </mxCell>
        <mxCell id="UK8CRLs89HbCflNbkE4f-5" value="浏览文章" style="ellipse;whiteSpace=wrap;html=1;" parent="1" vertex="1">
          <mxGeometry x="210" y="400" width="150" height="80" as="geometry" />
        </mxCell>
        <mxCell id="UK8CRLs89HbCflNbkE4f-6" value="" style="endArrow=classic;html=1;exitX=1;exitY=0.5;exitDx=0;exitDy=0;entryX=-0.012;entryY=0.318;entryDx=0;entryDy=0;entryPerimeter=0;" parent="1" source="UK8CRLs89HbCflNbkE4f-2" target="UK8CRLs89HbCflNbkE4f-5" edge="1">
          <mxGeometry width="50" height="50" relative="1" as="geometry">
            <mxPoint x="160" y="290" as="sourcePoint" />
            <mxPoint x="210" y="275" as="targetPoint" />
          </mxGeometry>
        </mxCell>
        <mxCell id="UK8CRLs89HbCflNbkE4f-7" value="查看文章" style="ellipse;whiteSpace=wrap;html=1;" parent="1" vertex="1">
          <mxGeometry x="555" y="540" width="140" height="70" as="geometry" />
        </mxCell>
        <mxCell id="UK8CRLs89HbCflNbkE4f-8" value="" style="endArrow=open;endFill=1;endSize=12;html=1;entryX=0.002;entryY=0.304;entryDx=0;entryDy=0;dashed=1;exitX=1.007;exitY=0.641;exitDx=0;exitDy=0;entryPerimeter=0;exitPerimeter=0;" parent="1" source="UK8CRLs89HbCflNbkE4f-5" target="UK8CRLs89HbCflNbkE4f-7" edge="1">
          <mxGeometry width="160" relative="1" as="geometry">
            <mxPoint x="330.24" y="393.68000000000006" as="sourcePoint" />
            <mxPoint x="555.94" y="587.9999999999998" as="targetPoint" />
          </mxGeometry>
        </mxCell>
        <mxCell id="UK8CRLs89HbCflNbkE4f-9" value="&amp;lt;&amp;lt;include&amp;gt;&amp;gt;" style="edgeLabel;html=1;align=center;verticalAlign=middle;resizable=0;points=[];" parent="UK8CRLs89HbCflNbkE4f-8" vertex="1" connectable="0">
          <mxGeometry x="-0.0515" y="-2" relative="1" as="geometry">
            <mxPoint as="offset" />
          </mxGeometry>
        </mxCell>
        <mxCell id="UK8CRLs89HbCflNbkE4f-10" value="注册" style="ellipse;whiteSpace=wrap;html=1;" parent="1" vertex="1">
          <mxGeometry x="540" y="1030" width="120" height="80" as="geometry" />
        </mxCell>
        <mxCell id="UK8CRLs89HbCflNbkE4f-11" value="登录" style="ellipse;whiteSpace=wrap;html=1;" parent="1" vertex="1">
          <mxGeometry x="540" y="1140" width="120" height="80" as="geometry" />
        </mxCell>
        <mxCell id="UK8CRLs89HbCflNbkE4f-12" value="" style="endArrow=open;endFill=1;endSize=12;html=1;entryX=0;entryY=0.5;entryDx=0;entryDy=0;dashed=1;exitX=1;exitY=0.5;exitDx=0;exitDy=0;" parent="1" source="p_YJIw6m68GWcsmd0kjf-34" target="UK8CRLs89HbCflNbkE4f-10" edge="1">
          <mxGeometry width="160" relative="1" as="geometry">
            <mxPoint x="190" y="804.9999999999998" as="sourcePoint" />
            <mxPoint x="565" y="674.9999999999998" as="targetPoint" />
          </mxGeometry>
        </mxCell>
        <mxCell id="UK8CRLs89HbCflNbkE4f-13" value="&amp;lt;&amp;lt;include&amp;gt;&amp;gt;" style="edgeLabel;html=1;align=center;verticalAlign=middle;resizable=0;points=[];" parent="UK8CRLs89HbCflNbkE4f-12" vertex="1" connectable="0">
          <mxGeometry x="-0.0515" y="-2" relative="1" as="geometry">
            <mxPoint as="offset" />
          </mxGeometry>
        </mxCell>
        <mxCell id="UK8CRLs89HbCflNbkE4f-14" value="" style="endArrow=open;endFill=1;endSize=12;html=1;entryX=0;entryY=0.5;entryDx=0;entryDy=0;dashed=1;exitX=1;exitY=0.5;exitDx=0;exitDy=0;" parent="1" source="p_YJIw6m68GWcsmd0kjf-34" target="UK8CRLs89HbCflNbkE4f-11" edge="1">
          <mxGeometry width="160" relative="1" as="geometry">
            <mxPoint x="190" y="1205" as="sourcePoint" />
            <mxPoint x="550" y="1080" as="targetPoint" />
          </mxGeometry>
        </mxCell>
        <mxCell id="UK8CRLs89HbCflNbkE4f-15" value="&amp;lt;&amp;lt;include&amp;gt;&amp;gt;" style="edgeLabel;html=1;align=center;verticalAlign=middle;resizable=0;points=[];" parent="UK8CRLs89HbCflNbkE4f-14" vertex="1" connectable="0">
          <mxGeometry x="-0.0515" y="-2" relative="1" as="geometry">
            <mxPoint as="offset" />
          </mxGeometry>
        </mxCell>
        <mxCell id="UK8CRLs89HbCflNbkE4f-16" value="" style="endArrow=open;endFill=1;endSize=12;html=1;dashed=1;exitX=1;exitY=0.5;exitDx=0;exitDy=0;entryX=0;entryY=0.5;entryDx=0;entryDy=0;" parent="1" source="p_YJIw6m68GWcsmd0kjf-34" target="UK8CRLs89HbCflNbkE4f-18" edge="1">
          <mxGeometry width="160" relative="1" as="geometry">
            <mxPoint x="190" y="1205" as="sourcePoint" />
            <mxPoint x="560" y="1290" as="targetPoint" />
          </mxGeometry>
        </mxCell>
        <mxCell id="UK8CRLs89HbCflNbkE4f-17" value="&amp;lt;&amp;lt;include&amp;gt;&amp;gt;" style="edgeLabel;html=1;align=center;verticalAlign=middle;resizable=0;points=[];" parent="UK8CRLs89HbCflNbkE4f-16" vertex="1" connectable="0">
          <mxGeometry x="-0.0515" y="-2" relative="1" as="geometry">
            <mxPoint as="offset" />
          </mxGeometry>
        </mxCell>
        <mxCell id="UK8CRLs89HbCflNbkE4f-18" value="登出" style="ellipse;whiteSpace=wrap;html=1;" parent="1" vertex="1">
          <mxGeometry x="540" y="1250" width="120" height="80" as="geometry" />
        </mxCell>
        <mxCell id="UK8CRLs89HbCflNbkE4f-19" value="成员1" style="shape=umlActor;verticalLabelPosition=bottom;verticalAlign=top;html=1;outlineConnect=0;" parent="1" vertex="1">
          <mxGeometry x="900" y="110" width="90" height="160" as="geometry" />
        </mxCell>
        <mxCell id="UK8CRLs89HbCflNbkE4f-20" value="" style="endArrow=classic;html=1;exitX=1;exitY=0.5;exitDx=0;exitDy=0;" parent="1" source="ZDJ-HBRPtkBt4qHDMkSX-4" target="UK8CRLs89HbCflNbkE4f-19" edge="1">
          <mxGeometry width="50" height="50" relative="1" as="geometry">
            <mxPoint x="790" y="115" as="sourcePoint" />
            <mxPoint x="840" y="20" as="targetPoint" />
          </mxGeometry>
        </mxCell>
        <mxCell id="UK8CRLs89HbCflNbkE4f-21" value="" style="endArrow=classic;html=1;exitX=1;exitY=0.5;exitDx=0;exitDy=0;entryX=0;entryY=0.3333333333333333;entryDx=0;entryDy=0;entryPerimeter=0;" parent="1" source="ZDJ-HBRPtkBt4qHDMkSX-9" target="UK8CRLs89HbCflNbkE4f-19" edge="1">
          <mxGeometry width="50" height="50" relative="1" as="geometry">
            <mxPoint x="710" y="65" as="sourcePoint" />
            <mxPoint x="910" y="175.20408163265301" as="targetPoint" />
          </mxGeometry>
        </mxCell>
        <mxCell id="UK8CRLs89HbCflNbkE4f-22" value="" style="endArrow=classic;html=1;exitX=1;exitY=0.5;exitDx=0;exitDy=0;" parent="1" source="ZDJ-HBRPtkBt4qHDMkSX-5" edge="1">
          <mxGeometry width="50" height="50" relative="1" as="geometry">
            <mxPoint x="720" y="75" as="sourcePoint" />
            <mxPoint x="890" y="170" as="targetPoint" />
          </mxGeometry>
        </mxCell>
        <mxCell id="UK8CRLs89HbCflNbkE4f-23" value="" style="endArrow=classic;html=1;exitX=1;exitY=0.5;exitDx=0;exitDy=0;" parent="1" source="ZDJ-HBRPtkBt4qHDMkSX-13" edge="1">
          <mxGeometry width="50" height="50" relative="1" as="geometry">
            <mxPoint x="730" y="85" as="sourcePoint" />
            <mxPoint x="890" y="170" as="targetPoint" />
          </mxGeometry>
        </mxCell>
        <mxCell id="UK8CRLs89HbCflNbkE4f-25" value="成员2" style="shape=umlActor;verticalLabelPosition=bottom;verticalAlign=top;html=1;outlineConnect=0;" parent="1" vertex="1">
          <mxGeometry x="900" y="380" width="90" height="160" as="geometry" />
        </mxCell>
        <mxCell id="UK8CRLs89HbCflNbkE4f-26" value="" style="endArrow=classic;html=1;exitX=1;exitY=0.5;exitDx=0;exitDy=0;entryX=0;entryY=0.3333333333333333;entryDx=0;entryDy=0;entryPerimeter=0;" parent="1" source="ZDJ-HBRPtkBt4qHDMkSX-16" target="UK8CRLs89HbCflNbkE4f-25" edge="1">
          <mxGeometry width="50" height="50" relative="1" as="geometry">
            <mxPoint x="710" y="315" as="sourcePoint" />
            <mxPoint x="900" y="180" as="targetPoint" />
          </mxGeometry>
        </mxCell>
        <mxCell id="UK8CRLs89HbCflNbkE4f-27" value="" style="endArrow=classic;html=1;exitX=1;exitY=0.5;exitDx=0;exitDy=0;entryX=0;entryY=0.3333333333333333;entryDx=0;entryDy=0;entryPerimeter=0;" parent="1" source="ZDJ-HBRPtkBt4qHDMkSX-17" target="UK8CRLs89HbCflNbkE4f-25" edge="1">
          <mxGeometry width="50" height="50" relative="1" as="geometry">
            <mxPoint x="695" y="410" as="sourcePoint" />
            <mxPoint x="910" y="443.3333333333335" as="targetPoint" />
          </mxGeometry>
        </mxCell>
        <mxCell id="UK8CRLs89HbCflNbkE4f-28" value="" style="endArrow=classic;html=1;exitX=1;exitY=0.5;exitDx=0;exitDy=0;" parent="1" source="UK8CRLs89HbCflNbkE4f-7" edge="1">
          <mxGeometry width="50" height="50" relative="1" as="geometry">
            <mxPoint x="705" y="495.0000000000002" as="sourcePoint" />
            <mxPoint x="900" y="440" as="targetPoint" />
          </mxGeometry>
        </mxCell>
        <mxCell id="UK8CRLs89HbCflNbkE4f-29" value="成员3" style="shape=umlActor;verticalLabelPosition=bottom;verticalAlign=top;html=1;outlineConnect=0;" parent="1" vertex="1">
          <mxGeometry x="890" y="685" width="90" height="160" as="geometry" />
        </mxCell>
        <mxCell id="UK8CRLs89HbCflNbkE4f-30" value="" style="endArrow=classic;html=1;exitX=1;exitY=0.5;exitDx=0;exitDy=0;entryX=0;entryY=0.3333333333333333;entryDx=0;entryDy=0;entryPerimeter=0;" parent="1" source="ZDJ-HBRPtkBt4qHDMkSX-18" target="UK8CRLs89HbCflNbkE4f-29" edge="1">
          <mxGeometry width="50" height="50" relative="1" as="geometry">
            <mxPoint x="705" y="584.9999999999998" as="sourcePoint" />
            <mxPoint x="910" y="450" as="targetPoint" />
          </mxGeometry>
        </mxCell>
        <mxCell id="UK8CRLs89HbCflNbkE4f-31" value="" style="endArrow=classic;html=1;exitX=1;exitY=0.5;exitDx=0;exitDy=0;" parent="1" source="ZDJ-HBRPtkBt4qHDMkSX-19" edge="1">
          <mxGeometry width="50" height="50" relative="1" as="geometry">
            <mxPoint x="705" y="674.9999999999998" as="sourcePoint" />
            <mxPoint x="880" y="740" as="targetPoint" />
          </mxGeometry>
        </mxCell>
        <mxCell id="UK8CRLs89HbCflNbkE4f-32" value="" style="endArrow=classic;html=1;exitX=1;exitY=0.5;exitDx=0;exitDy=0;" parent="1" source="ZDJ-HBRPtkBt4qHDMkSX-21" edge="1">
          <mxGeometry width="50" height="50" relative="1" as="geometry">
            <mxPoint x="705" y="774.9999999999998" as="sourcePoint" />
            <mxPoint x="890" y="749.9999999999998" as="targetPoint" />
          </mxGeometry>
        </mxCell>
        <mxCell id="UK8CRLs89HbCflNbkE4f-33" value="" style="endArrow=classic;html=1;exitX=0.981;exitY=0.371;exitDx=0;exitDy=0;exitPerimeter=0;" parent="1" source="ZDJ-HBRPtkBt4qHDMkSX-20" edge="1">
          <mxGeometry width="50" height="50" relative="1" as="geometry">
            <mxPoint x="715" y="784.9999999999998" as="sourcePoint" />
            <mxPoint x="900" y="759.9999999999998" as="targetPoint" />
          </mxGeometry>
        </mxCell>
        <mxCell id="UK8CRLs89HbCflNbkE4f-34" value="成员4" style="shape=umlActor;verticalLabelPosition=bottom;verticalAlign=top;html=1;outlineConnect=0;" parent="1" vertex="1">
          <mxGeometry x="860" y="1070" width="90" height="160" as="geometry" />
        </mxCell>
        <mxCell id="UK8CRLs89HbCflNbkE4f-35" value="" style="endArrow=classic;html=1;exitX=0.981;exitY=0.371;exitDx=0;exitDy=0;exitPerimeter=0;entryX=0;entryY=0.3333333333333333;entryDx=0;entryDy=0;entryPerimeter=0;" parent="1" target="UK8CRLs89HbCflNbkE4f-34" edge="1">
          <mxGeometry width="50" height="50" relative="1" as="geometry">
            <mxPoint x="660.0000000000001" y="1069.9999999999998" as="sourcePoint" />
            <mxPoint x="872.66" y="884.0299999999997" as="targetPoint" />
          </mxGeometry>
        </mxCell>
        <mxCell id="UK8CRLs89HbCflNbkE4f-36" value="" style="endArrow=classic;html=1;exitX=1;exitY=0.5;exitDx=0;exitDy=0;entryX=0;entryY=0.3333333333333333;entryDx=0;entryDy=0;entryPerimeter=0;" parent="1" source="UK8CRLs89HbCflNbkE4f-11" edge="1">
          <mxGeometry width="50" height="50" relative="1" as="geometry">
            <mxPoint x="670" y="1080" as="sourcePoint" />
            <mxPoint x="870" y="1133.333333333333" as="targetPoint" />
          </mxGeometry>
        </mxCell>
        <mxCell id="UK8CRLs89HbCflNbkE4f-37" value="" style="endArrow=classic;html=1;exitX=1;exitY=0.5;exitDx=0;exitDy=0;" parent="1" source="UK8CRLs89HbCflNbkE4f-18" edge="1">
          <mxGeometry width="50" height="50" relative="1" as="geometry">
            <mxPoint x="680" y="1090" as="sourcePoint" />
            <mxPoint x="880" y="1143" as="targetPoint" />
          </mxGeometry>
        </mxCell>
      </root>
    </mxGraphModel>
  </diagram>
</mxfile>
